<svg height="448pt" viewBox="-24 0 448 448" width="448pt" xmlns="http://www.w3.org/2000/svg"><path d="m211.996094 32c0 6.628906-5.371094 12-12 12-6.625 0-12-5.371094-12-12s5.375-12 12-12c6.628906 0 12 5.371094 12 12zm0 0"/><path d="m127.996094 72v-40h-16v64h112v-16h-88c-4.417969 0-8-3.582031-8-8zm0 0"/><path d="m143.996094 0v64h112v-64zm56 60c-15.460938 0-28-12.535156-28-28s12.539062-28 28-28c15.464844 0 28 12.535156 28 28s-12.535156 28-28 28zm0 0"/><path d="m207.996094 376v24h-16v-24zm32 72h-80v-72h16v32c0 4.417969 3.582031 8 8 8h32c4.421875 0 8-3.582031 8-8v-32h16zm0 0"/><path d="m120.40625 248h40.289062c.320313 10.714844 1.292969 21.402344 2.910157 32h-32.800781c-5.71875-9.796875-9.265626-20.710938-10.398438-32zm40.289062-16h-40.289062c1.132812-11.289062 4.679688-22.203125 10.398438-32h32.800781c-1.617188 10.597656-2.589844 21.285156-2.910157 32zm19.085938-32h40.921875c1.714844 10.589844 2.75 21.277344 3.09375 32h-47.101563c.34375-10.722656 1.375-21.410156 3.085938-32zm-3.085938 48h47.101563c-.34375 10.722656-1.378906 21.410156-3.09375 32h-40.921875c-1.710938-10.589844-2.742188-21.277344-3.085938-32zm63.101563 0h39.792969c-1.132813 11.289062-4.679688 22.203125-10.398438 32h-32.304687c1.613281-10.597656 2.585937-21.285156 2.910156-32zm0-16c-.324219-10.714844-1.296875-21.402344-2.910156-32h32.289062c5.714844 9.796875 9.261719 20.710938 10.398438 32zm17.234375-48h-23.042969c-1.328125-6.167969-2.917969-12.289062-4.6875-18.398438 10.425781 4.128907 19.871094 10.398438 27.730469 18.398438zm-45.976562-23.144531c2.554687 7.632812 4.730468 15.347656 6.527343 23.144531h-34.671875c1.792969-7.824219 3.976563-15.558594 6.558594-23.199219 7.164062-1.0625 14.445312-1.035156 21.601562.078125zm-39.800782 4.578125c-1.800781 6.140625-3.40625 12.335937-4.753906 18.566406h-23.535156c8.003906-8.132812 17.644531-14.460938 28.289062-18.566406zm-28.289062 130.566406h23.535156c1.347656 6.230469 2.953125 12.425781 4.753906 18.566406-10.644531-4.105468-20.285156-10.433594-28.289062-18.566406zm46.503906 23.199219c-2.570312-7.652344-4.757812-15.386719-6.558594-23.199219h34.6875c-1.78125 7.792969-3.957031 15.507812-6.527344 23.144531-7.15625 1.113281-14.4375 1.140625-21.601562.078125zm39.832031-4.855469c1.769531-6.078125 3.359375-12.199219 4.6875-18.398438h23.042969c-7.851562 8.019532-17.300781 14.308594-27.730469 18.453126zm0 0"/><path d="m387.46875 154.167969-15 5.601562c1.800781 4.855469 3.402344 9.773438 4.753906 14.636719l15.421875-4.277344c-1.445312-5.328125-3.214843-10.671875-5.175781-15.960937zm0 0"/><path d="m355.492188 322.441406 13.496093 8.574219c2.960938-4.65625 5.785157-9.535156 8.378907-14.511719l-14.167969-7.414062c-2.402344 4.574218-4.992188 9.070312-7.707031 13.351562zm0 0"/><path d="m392.734375 277.601562-15.425781-4.265624c-1.359375 4.894531-2.949219 9.824218-4.742188 14.648437l15 5.601563c1.945313-5.273438 3.6875-10.632813 5.167969-15.984376zm0 0"/><path d="m382.070312 250.753906 15.824219 2.292969c.800781-5.519531 1.382813-11.117187 1.71875-16.65625l-16-.964844c-.28125 5.078125-.808593 10.246094-1.542969 15.328125zm0 0"/><path d="m355.34375 125.34375c2.734375 4.296875 5.335938 8.800781 7.734375 13.335938l14.152344-7.441407c-2.59375-4.941406-5.417969-9.8125-8.390625-14.484375zm0 0"/><path d="m302.007812 377.167969 8.871094 13.3125c4.621094-3.082031 9.183594-6.402344 13.542969-9.878907l-9.96875-12.511718c-4.007813 3.183594-8.191406 6.238281-12.445313 9.078125zm0 0"/><path d="m331.429688 95.199219c3.601562 3.671875 7.0625 7.527343 10.320312 11.449219l12.328125-10.167969c-3.535156-4.273438-7.304687-8.457031-11.199219-12.449219zm0 0"/><path d="m382.03125 196.976562c.742188 5.085938 1.277344 10.238282 1.597656 15.328126l16-1c-.34375-5.519532-.925781-11.136719-1.742187-16.65625zm0 0"/><path d="m273.902344 409.910156c5.214844-2.078125 10.34375-4.382812 15.273437-6.839844l-7.136719-14.269531c-4.539062 2.253907-9.273437 4.375-14.074218 6.296875zm0 0"/><path d="m343.039062 363.792969c3.871094-4 7.648438-8.160157 11.199219-12.464844l-12.328125-10.183594c-3.273437 3.960938-6.734375 7.808594-10.304687 11.457031zm0 0"/><path d="m302.644531 55.910156c-4.351562.75-7.273437 4.886719-6.527343 9.242188l6.878906 40.199218 15.769531-2.703124-5.535156-32.320313 32.320312-5.535156-2.703125-15.769531zm0 0"/><path d="m111.839844 350.398438-15.683594 3.136718 5.136719 25.703125c-51.566407-32.773437-83.5-89.007812-85.230469-150.085937-1.726562-61.074219 26.976562-119.027344 76.609375-154.664063l-9.347656-12.984375c-52.9375 38.007813-84.027344 99.429688-83.3125002 164.59375.7148432 65.164063 33.1484372 125.890625 86.9062502 162.726563l-16.519531 3.335937 3.136718 15.679688 40-8c2.089844-.410156 3.933594-1.636719 5.113282-3.40625 1.183593-1.773438 1.613281-3.945313 1.191406-6.035156zm0 0"/></svg>